<?xml version="1.0" encoding="utf-8" ?>
<svg baseProfile="full" height="899.960242987" version="1.1" width="393.076752692" xmlns="http://www.w3.org/2000/svg" xmlns:ev="http://www.w3.org/2001/xml-events" xmlns:xlink="http://www.w3.org/1999/xlink"><defs /><rect fill="white" height="899.960242987" width="393.076752692" x="0" y="0" /><path d="M25.2261355519,859.984535873 m-0.226135551929,6.70532417297 l4.01719093323,4.2157087326 3.99127149582,2.58441758156 l5.29662561417,1.0243024826 5.10344600677,0.445954144001 l5.23882436752,-0.045794993639 5.44770717621,-0.375234723091 l5.59986686707,-0.799408912659 5.45069217682,-1.38140594959 l4.88985919952,-2.08621144295 3.95383024216,-2.80580067635 l2.81350493431,-3.44054317474 1.69211030006,-3.94135499001 l0.771160423756,-4.31042003632 0.128594785929,-4.57207775116 l-0.261937081814,-4.74505805969 -0.483500957489,-4.83762979507 l-0.619322776794,-4.85922336578 -0.722138226032,-4.82654523849 l-0.815147161484,-4.75847816467 -0.90641528368,-4.66928482056 l-0.999143719673,-4.56657409668 -1.09477043152,-4.45295906067 l-1.19290721416,-4.328540802 -1.2912530899,-4.19280290604 l-1.38603377342,-4.04557752609 -1.47291123867,-3.88740897179 l-1.54781711102,-3.71951770782 -1.60754990578,-3.54366755486 l-1.65006327629,-3.36199855804 -1.6745172739,-3.17684531212 l-1.68102788925,-2.99063873291 -1.67049908638,-2.8056845665 l-1.64433860779,-2.62414383888 -1.60426723957,-2.44791555405 l-1.55210721493,-2.2785820961 -1.48971378803,-2.11742997169 l-1.41885685921,-1.96540784836 -1.34113240242,-1.82318615913 l-1.25790762901,-1.69117581844 -1.17038035393,-1.56954622269 l-1.07948923111,-1.45828163624 -0.9859547019,-1.35722219944 l-0.890316069126,-1.26605820656 -0.792968630791,-1.18441009521 l-0.694150447845,-1.11180579662 -0.594000518322,-1.04772722721 l-0.492582470179,-0.991625547409 -0.389902293682,-0.942924439907 l-0.285917520523,-0.901058137417 -0.180578231812,-0.86542481184 l-0.0738225877285,-0.835446059704 0.0343933701515,-0.810536205769 l0.144056975842,-0.79011040926 0.255157798529,-0.773570895195 l0.367606043816,-0.760331392288 0.481228530407,-0.74979698658 l0.595820665359,-0.741365730762 0.711056232452,-0.734426081181 l0.826547265053,-0.728398740292 0.941799223423,-0.722689568996 l1.05623340607,-0.716752529144 1.16918981075,-0.71006155014 l1.27996659279,-0.70216190815 1.38778662682,-0.692654013634 l1.49186682701,-0.681217968464 1.59142577648,-0.66763573885 l1.6857419014,-0.651769697666 1.77413225174,-0.63356757164 l1.85600543022,-0.61307233572 1.93091404438,-0.590407133102 l1.99851119518,-0.565726697445 2.05858898163,-0.539269864559 l2.11110520363,-0.51126742363 2.15610694885,-0.482006728649 l2.19376087189,-0.451743036509 2.22435188293,-0.420751035213 l2.24823951721,-0.389282047749 2.26582360268,-0.357577949762 l2.27755570412,-0.325879812241 2.28397846222,-0.294387698174 l2.28556871414,-0.263307243586 2.28289294243,-0.232828781009 l2.27646493912,-0.203135982156 2.26687240601,-0.174408778548 l2.25466537476,-0.146825611591 2.24043464661,-0.120579823852 l2.22476577759,-0.0958409160376 2.20826864243,-0.0728134065866 l2.19156527519,-0.0516932457685 2.1752808094,-0.0326845794916 l2.16008234024,-0.0160068273544 2.14660358429,-0.00185407698154 l2.1354739666,0.00953488051891 2.12735390663,0.017974153161 l2.12284708023,0.0232417136431 2.12252354622,0.0251647084951 l2.12689781189,0.0235617160797 2.13644909859,0.0182889401913 l2.15153360367,0.0092651695013 2.17242288589,-0.00362731516361 l2.19926762581,-0.0203877687454 2.23209404945,-0.0409957021475 l2.27080321312,-0.0653829425573 2.31514573097,-0.0934135168791 l2.36473011971,-0.124919787049 2.41906428337,-0.159659981728 l2.47750401497,-0.1973554492 2.53936457634,-0.237670913339 l2.60384821892,-0.280264765024 2.67019343376,-0.324768185616 l2.737585783,-0.370790421963 2.80526947975,-0.417935490608 l2.8725643158,-0.465865254402 2.9388422966,-0.514222502708 l3.00359201431,-0.562686681747 3.06638002396,-0.611012220383 l3.12692260742,-0.658960282803 3.18497610092,-0.706333637238 l3.24043822289,-0.753026247025 3.29323148727,-0.798938632011 l3.3433611393,-0.844017624855 3.39088511467,-0.888282418251 l3.4358587265,-0.931746304035 3.47839474678,-0.974464416504 l3.51858615875,-1.01653671265 3.55652117729,-1.0580573082 l3.59227538109,-1.09915411472 3.62594008446,-1.13995301723 l3.65754508972,-1.18060016632 3.6871471405,-1.22125351429 l3.71473503113,-1.26202642918 3.74030780792,-1.30311107635 l3.76384544373,-1.34462475777 3.78529238701,-1.38671767712 l3.80458450317,-1.42953264713 3.82164716721,-1.47320628166 l3.83639073372,-1.51786351204 3.84870767593,-1.56363284588 l3.85850381851,-1.61061775684 3.86563396454,-1.65893959999 l3.86995792389,-1.70870089531 3.87136554718,-1.76000070572 l3.86967921257,-1.81294286251 3.86476302147,-1.86757111549 l3.85645365715,-1.9240090847 3.8445930481,-1.98230171204 l3.82900834084,-2.04253911972 3.80953669548,-2.10476398468 l3.78599834442,-2.16901302338 3.75819802284,-2.23537230492 l3.72600626945,-2.30384111404 3.68918776512,-2.37445998192 l3.64762687683,-2.44725441933 3.60112714767,-2.52221727371 l3.54953622818,-2.59935855865 3.49268102646,-2.6786468029 l3.4304432869,-2.76006817818 3.36270046234,-2.8435549736 l3.28934788704,-2.92907571793 3.21031665802,-3.01653909683 l3.12554311752,-3.10585546494 3.03503727913,-3.19693088531 l2.93882799149,-3.28963446617 2.83701205254,-3.38383245468 l2.72972726822,-3.47939515114 2.61714839935,-3.576141119 l2.49955272675,-3.67393565178 2.37721943855,-3.77257418633 l2.25053119659,-3.87188386917 2.11992120743,-3.9716925621 l1.98581957817,-4.07179117203 1.84874236584,-4.17200136185 l1.70918405056,-4.27214956284 1.56766843796,-4.37204933167 l1.42472314835,-4.47153091431 1.28080701828,-4.57040596008 l1.13643705845,-4.66855382919 0.992008328438,-4.765812397 l0.847894668579,-4.86208152771 0.704473257065,-4.95726966858 l0.562052428722,-5.05130052567 0.420893728733,-5.14413166046 l0.281225889921,-5.23575592041 0.143283605576,-5.32621240616 l0.00724941492081,-5.41551351547 -0.126665830612,-5.5037817955 l-0.258291512728,-5.59107494354 -0.387401878834,-5.67752981186 l-0.513855338097,-5.76328516006 -0.637437403202,-5.84847831726 l-0.757961750031,-5.93326807022 -0.875224173069,-6.01780128479 l-0.989063084126,-6.10222911835 -1.09925198555,-6.18669891357 l-1.20564556122,-6.27130270004 -1.30807387829,-6.35620069504 l-1.40640282631,-6.44144630432 -1.50048363209,-6.52714967728 l-1.59021544456,-6.61335134506 -1.67550373077,-6.70010137558 l-1.75628066063,-6.7874083519 -1.83252096176,-6.87529468536 l-1.90417909622,-6.96371269226 -1.9712433815,-7.05265712738 l-2.03376626968,-7.14205121994 -2.09175348282,-7.23185110092 l-2.14527249336,-7.3219666481 -2.19439482689,-7.41232252121 l-2.2391974926,-7.50279712677 -2.27980470657,-7.59329557419 l-2.31630802155,-7.68371677399 -2.34887075424,-7.77393484116 l-2.3775703907,-7.86382865906 -2.40259099007,-7.95327138901 l-2.42407917976,-8.04215335846 -2.44217658043,-8.13035392761 l-2.45706057549,-8.21774578094 -2.46887803078,-8.30423545837 l-2.47782325745,-8.38971614838 -2.48405194283,-8.47407531738 l-2.48772644997,-8.55721950531 -2.48901033401,-8.63907718658 l-2.48810720444,-8.71954154968 -2.48515319824,-8.79857158661 l-2.48030948639,-8.87607860565 -2.47375512123,-8.95203304291 l-2.46565055847,-9.02634525299 -2.45613980293,-9.0990114212 l-2.4453625679,-9.16999912262 -2.43346166611,-9.23927402496 l-2.42058563232,-9.30680656433 -2.40686321259,-9.37260818481 l-2.39240312576,-9.43667411804 -2.37733054161,-9.49898910522 l-2.36177301407,-9.55958843231 -2.34582495689,-9.61844444275 l-2.32958269119,-9.67561817169 -2.31314682961,-9.73110961914 l-2.29657506943,-9.78497028351 -2.27996253967,-9.83719348907 l-2.26341032982,-9.88785171509 -2.24693727493,-9.93695831299 l-2.23063516617,-9.98458003998 -2.21453905106,-10.0307331085 l-2.19870352745,-10.0754814148 -2.18317437172,-10.118850708 l-2.16797590256,-10.1609172821 -2.1531560421,-10.2017011642 l-2.13875389099,-10.2412786484 " fill="none" stroke="black" stroke-width="1" /></svg>